<svg width="515" height="515" viewBox="0 0 515 515" fill="none" xmlns="http://www.w3.org/2000/svg">
<path d="M271.5 501H74.875C41.3024 501 14 473.698 14 440.125V74.875C14 41.3024 41.3024 14 74.875 14H440.125C473.698 14 501 41.3024 501 74.875V440.125C501 473.698 473.698 501 440.125 501H335M257.8 501V333.885H197V257.923H257.8V197.154C257.8 146.807 298.627 106 349 106H409.8V181.962H379.4C362.619 181.962 349 180.382 349 197.154V257.923H425L394.6 333.885H349V501" stroke="black" stroke-width="28"/>
</svg>
