<svg width="203" height="60" viewBox="0 0 203 60" fill="none" xmlns="http://www.w3.org/2000/svg">
<path d="M7.58756 28.6751L6.73612 28.1506H6.73612L7.58756 28.6751ZM14.8178 16.7801L15.6787 17.2889L14.8178 16.7801ZM23.4814 7.85913L24.2708 7.24526V7.24526L23.4814 7.85913ZM37.4726 30.5532L36.6072 31.0543L37.4726 30.5532ZM41.6136 38.0502L40.7226 38.5043L41.6136 38.0502ZM1.47988 39.3063L0.601519 38.8283H0.601518L1.47988 39.3063ZM20.1654 8.48704L19.3339 7.93144L19.3339 7.93144L20.1654 8.48704ZM21.1198 32.1709L22.0939 31.9446L22.0928 31.94L21.1198 32.1709ZM20.1889 24.2575L21.1757 24.0958L20.1889 24.2575ZM19.7235 18.7726L20.719 18.6777L19.7235 18.7726ZM23.2142 32.1709L24.1967 32.3575L23.2142 32.1709ZM23.1022 35.0972L23.6679 34.2726L23.1022 35.0972ZM23.2797 37.6379L22.5905 36.9133L23.2797 37.6379ZM20.3533 36.591L21.3506 36.5169L20.3533 36.591ZM74.068 41.4547C73.5158 41.4547 73.068 41.9024 73.068 42.4547C73.068 43.0069 73.5158 43.4547 74.068 43.4547V41.4547ZM94.3634 31.9662C94.0867 31.4883 93.4749 31.3252 92.9969 31.6019C92.519 31.8787 92.3559 32.4905 92.6327 32.9684L94.3634 31.9662ZM96.511 38.0577L95.62 38.5117L96.511 38.0577ZM78.8852 46.3355C79.4239 46.4571 79.9592 46.1189 80.0807 45.5802C80.2023 45.0414 79.8641 44.5061 79.3253 44.3846L78.8852 46.3355ZM73.5281 42.4547L72.5414 42.2917C72.5098 42.4833 72.5346 42.68 72.6129 42.8577L73.5281 42.4547ZM79.8429 40.5295C80.3842 40.4202 80.7345 39.8927 80.6252 39.3514C80.5159 38.81 79.9885 38.4597 79.4471 38.569L79.8429 40.5295ZM56.3347 39.3686L55.4264 38.9502L56.3347 39.3686ZM67.9752 21.8344C68.2659 21.3649 68.1209 20.7485 67.6513 20.4578C67.1817 20.1671 66.5654 20.3121 66.2747 20.7817L67.9752 21.8344ZM66.3016 43.4534C66.8536 43.4698 67.3145 43.0357 67.331 42.4837C67.3475 41.9316 66.9133 41.4707 66.3613 41.4542L66.3016 43.4534ZM59.1351 42.4538V43.4538V42.4538ZM61.2986 23.0524C60.9126 23.4474 60.9199 24.0805 61.315 24.4665C61.71 24.8524 62.3431 24.8451 62.7291 24.4501L61.2986 23.0524ZM67.4111 20.8459L68.0767 20.0995C67.9296 19.9684 67.7472 19.8837 67.5522 19.8559L67.4111 20.8459ZM66.421 26.3349C66.3436 26.8817 66.7241 27.3878 67.2709 27.4652C67.8178 27.5426 68.3238 27.162 68.4012 26.6152L66.421 26.3349ZM78.6621 8.25899L79.4457 7.63772L78.6621 8.25899ZM88.9417 26.4987C89.2156 26.9783 89.8265 27.1449 90.306 26.8709C90.7855 26.597 90.9522 25.9861 90.6782 25.5066L88.9417 26.4987ZM69.8063 14.5011C69.5096 14.967 69.6467 15.5851 70.1125 15.8818C70.5784 16.1785 71.1965 16.0414 71.4932 15.5756L69.8063 14.5011ZM74.4279 9.2276L75.2497 9.79749L74.4279 9.2276ZM91.3947 20.3681C91.2313 19.8405 90.6711 19.5454 90.1435 19.7089C89.616 19.8724 89.3209 20.4326 89.4844 20.9601L91.3947 20.3681ZM90.0797 26.4748L89.2688 25.8897L89.2687 25.8897L90.0797 26.4748ZM85.8189 23.1302C85.3757 22.8006 84.7493 22.8927 84.4197 23.3359C84.0901 23.779 84.1822 24.4055 84.6254 24.7351L85.8189 23.1302ZM69.7885 54.9224L68.7892 54.8832L69.7885 54.9224ZM68.7893 59.0392C68.8109 59.591 69.2758 60.0209 69.8277 59.9992C70.3795 59.9776 70.8094 59.5127 70.7877 58.9608L68.7893 59.0392ZM70.9239 50.1259C70.9022 49.5741 70.4373 49.1443 69.8854 49.1659C69.3336 49.1876 68.9038 49.6526 68.9254 50.2044L70.9239 50.1259ZM69.9294 50.2907L68.9301 50.3273V50.3273L69.9294 50.2907ZM73.3481 51.7361L74.3458 51.6682L73.3481 51.7361ZM68.8504 53.6415C68.2981 53.6415 67.8504 54.0892 67.8504 54.6415C67.8504 55.1938 68.2981 55.6415 68.8504 55.6415V53.6415ZM79.3237 54.8872L80.3229 54.9264L79.3237 54.8872ZM78.3245 59.004C78.3461 59.5559 78.811 59.9857 79.3629 59.9641C79.9147 59.9424 80.3446 59.4775 80.3229 58.9256L78.3245 59.004ZM80.4591 50.0908C80.4374 49.5389 79.9725 49.1091 79.4206 49.1308C78.8688 49.1525 78.439 49.6174 78.4606 50.1693L80.4591 50.0908ZM83.0633 51.8829L84.0609 51.815L83.0633 51.8829ZM78.9253 53.7883C78.373 53.7883 77.9253 54.236 77.9253 54.7883C77.9253 55.3406 78.373 55.7883 78.9253 55.7883V53.7883ZM69.9674 32.3642L70.9261 32.08L69.9674 32.3642ZM74.8138 30.0281L73.8192 29.9242L74.8138 30.0281ZM82.4383 26.4981C82.9879 26.4432 83.3888 25.9532 83.3339 25.4036C83.279 24.8541 82.789 24.4531 82.2395 24.508L82.4383 26.4981ZM78.1569 25.9209L78.0574 24.9258C77.5764 24.9739 77.1986 25.3592 77.16 25.8411L78.1569 25.9209ZM77.8939 29.2072L76.8971 29.1275C76.8711 29.4524 77.0051 29.7697 77.2563 29.9776C77.5074 30.1854 77.8441 30.2578 78.1585 30.1716L77.8939 29.2072ZM81.5579 32.068L82.4242 32.5675L81.5579 32.068ZM77.9699 32.4015C77.524 32.0757 76.8983 32.173 76.5725 32.619C76.2467 33.0649 76.344 33.6905 76.7899 34.0164L77.9699 32.4015ZM153.815 19.3278H154.815H153.815ZM130.981 44.2949L130.916 45.2928C130.938 45.2942 130.959 45.2949 130.981 45.2949V44.2949ZM107.588 21.6215L108.585 21.5397L107.588 21.6215ZM129.531 14.94L130.326 15.5461C130.557 15.2434 130.595 14.8361 130.426 14.4953L129.531 14.94ZM125.382 20.3847L124.586 19.7786C124.285 20.1734 124.32 20.7292 124.667 21.084L125.382 20.3847ZM129.531 24.6255L130.411 25.0992C130.618 24.714 130.551 24.2388 130.245 23.9262L129.531 24.6255ZM126.682 29.9211L125.802 29.4474C125.617 29.7904 125.649 30.2092 125.882 30.5208L126.682 29.9211ZM131.329 36.1224L130.529 36.722C130.797 37.0801 131.271 37.2164 131.689 37.0556C132.106 36.8948 132.366 36.4762 132.325 36.0306L131.329 36.1224ZM130.73 29.6163L129.913 29.0387C129.776 29.2333 129.712 29.4707 129.734 29.7081L130.73 29.6163ZM134.477 24.3207L135.294 24.8984C135.562 24.5195 135.534 24.0059 135.226 23.6582L134.477 24.3207ZM130.73 20.0843L129.877 19.5623C129.647 19.9371 129.69 20.4177 129.981 20.7468L130.73 20.0843ZM133.878 14.94L134.731 15.4619C134.772 15.395 134.805 15.3234 134.829 15.2487L133.878 14.94ZM185.04 6.07593L186.04 6.09749L185.04 6.07593ZM193.089 2.02025L192.436 2.77752V2.77752L193.089 2.02025ZM189.585 11.1966L190.206 11.9802C190.557 11.7024 190.68 11.2256 190.508 10.8126C190.337 10.3997 189.912 10.151 189.467 10.2036L189.585 11.1966ZM175.07 12.1075L174.794 13.0685L175.07 12.1075ZM187.863 18.6183L187.613 19.5866V19.5866L187.863 18.6183ZM189.493 49.0308L190.445 48.7224L189.493 49.0308ZM200.974 48.6124L201.077 47.6178L200.974 48.6124ZM201.405 24.0737L202.394 23.9235L201.405 24.0737ZM194.429 9.27604L193.632 8.67124C193.414 8.95883 193.368 9.34183 193.511 9.67324C193.654 10.0046 193.965 10.233 194.325 10.2706L194.429 9.27604ZM167.851 37.5757L166.858 37.6954L167.851 37.5757ZM167.032 30.1648L168.02 30.3158L167.032 30.1648ZM169.314 47.5752L168.346 47.8254L169.314 47.5752ZM168.71 43.2325L167.717 43.3522L168.71 43.2325ZM181.318 30.6264L180.324 30.5245L181.318 30.6264ZM180.805 34.4945L179.811 34.3846L180.805 34.4945ZM180.1 42.5174L181.094 42.6273L180.1 42.5174ZM178.723 48.1287L178.194 47.2799L178.723 48.1287ZM171.568 28.565L171.591 27.5653L171.568 28.565ZM176.478 28.3806L176.383 27.3851L176.478 28.3806ZM175.031 48.4646L175.003 49.4642L175.031 48.4646ZM172.172 48.4454L172.2 47.4457L172.172 48.4454ZM8.43901 29.1995C11.8112 23.7247 12.6202 22.4638 15.6787 17.2889L13.9569 16.2713C10.9099 21.4268 10.1122 22.6696 6.73612 28.1506L8.43901 29.1995ZM22.692 8.47299C23.4008 9.38451 23.9531 10.277 24.7214 11.5451C25.488 12.8102 26.4513 14.4176 27.9618 16.7051L29.6308 15.603C28.1442 13.3517 27.199 11.7747 26.4319 10.5087C25.6666 9.24557 25.0599 8.26001 24.2708 7.24526L22.692 8.47299ZM27.9618 16.7051C30.9392 21.214 33.5467 25.7692 36.6072 31.0543L38.338 30.0521C35.2878 24.7848 32.6477 20.1718 29.6308 15.603L27.9618 16.7051ZM36.6072 31.0543C38.0594 33.5621 39.3876 35.8848 40.7226 38.5043L42.5045 37.5961C41.1434 34.9254 39.792 32.563 38.338 30.0521L36.6072 31.0543ZM40.7226 38.5043C41.0954 39.2357 41.4124 40.1323 41.3766 40.7609C41.3606 41.0396 41.2822 41.1613 41.2086 41.2268C41.1249 41.3013 40.8843 41.4474 40.2655 41.4474V43.4474C41.1738 43.4474 41.962 43.2337 42.5383 42.7208C43.1246 42.1989 43.3373 41.5058 43.3733 40.8749C43.4412 39.6843 42.9052 38.3823 42.5045 37.5961L40.7226 38.5043ZM2.97737 41.4474C2.37028 41.4474 2.14906 41.3142 2.09003 41.2661C2.05458 41.2372 2.01273 41.191 2.00212 41.035C1.99003 40.8574 2.02951 40.6203 2.11398 40.3592C2.19557 40.107 2.29932 39.8926 2.35823 39.7843L0.601518 38.8283C0.496423 39.0214 0.338288 39.3504 0.211073 39.7436C0.0867453 40.128 -0.02949 40.6386 0.00673175 41.1708C0.04443 41.7248 0.254932 42.3508 0.826811 42.8167C1.37511 43.2634 2.11621 43.4474 2.97737 43.4474V41.4474ZM2.35823 39.7843C4.66309 35.549 5.91586 33.2959 8.43901 29.1995L6.73612 28.1506C4.18651 32.29 2.91464 34.5778 0.601519 38.8283L2.35823 39.7843ZM15.6787 17.2889C18.0839 13.2194 18.9976 12.0345 20.9968 9.04263L19.3339 7.93144C17.3609 10.8841 16.399 12.1394 13.9569 16.2713L15.6787 17.2889ZM20.9968 9.04263C21.3275 8.54775 21.7351 8.30129 22.0423 8.23747C22.3085 8.18214 22.5169 8.24784 22.692 8.47299L24.2708 7.24526C23.5914 6.37153 22.5896 6.08103 21.6354 6.2793C20.722 6.46908 19.8989 7.08602 19.3339 7.93144L20.9968 9.04263ZM22.0928 31.94C21.8794 31.0406 21.7099 29.4917 21.5627 27.9182C21.4214 26.4063 21.2995 24.8515 21.1757 24.0958L19.2021 24.4191C19.311 25.0838 19.4219 26.505 19.5714 28.1044C19.7152 29.6421 19.8948 31.3397 20.1468 32.4018L22.0928 31.94ZM21.1757 24.0958C21.0858 23.5466 20.9896 22.4072 20.9056 21.2632C20.8245 20.1604 20.7551 19.0556 20.719 18.6777L18.7281 18.8675C18.7615 19.2187 18.826 20.2537 18.9109 21.4097C18.9928 22.5246 19.0946 23.7631 19.2021 24.4191L21.1757 24.0958ZM20.719 18.6777C20.6815 18.284 20.7785 18.097 20.8555 18.0013C20.9463 17.8884 21.1122 17.7778 21.3819 17.7132C21.6516 17.6486 21.9668 17.6459 22.2564 17.6999C22.5619 17.7569 22.7369 17.8566 22.7897 17.9027L24.1041 16.3952C23.6915 16.0355 23.1393 15.83 22.623 15.7338C22.0908 15.6346 21.4897 15.6307 20.9158 15.7683C20.342 15.9058 19.737 16.2007 19.2969 16.748C18.843 17.3124 18.6492 18.0403 18.7281 18.8675L20.719 18.6777ZM22.7897 17.9027C22.7534 17.871 22.8498 17.9446 22.9284 18.3773C22.9994 18.7679 23.0287 19.2906 23.0287 19.9315C23.0286 20.5662 23.0005 21.2678 22.9712 22.0109C22.9423 22.7453 22.9123 23.5171 22.9123 24.2575H24.9123C24.9123 23.563 24.9405 22.8303 24.9697 22.0897C24.9986 21.3578 25.0286 20.6137 25.0287 19.9315C25.0287 19.2554 24.9998 18.5897 24.8962 18.0198C24.8003 17.4919 24.6059 16.8328 24.1041 16.3952L22.7897 17.9027ZM22.9123 24.2575C22.9123 26.219 22.4523 30.8234 22.2318 31.9843L24.1967 32.3575C24.4413 31.0693 24.9123 26.3399 24.9123 24.2575H22.9123ZM22.2318 31.9843C22.2318 31.9844 22.2319 31.9839 22.2321 31.983C22.2324 31.9821 22.2328 31.9809 22.2333 31.9795C22.2344 31.9767 22.2358 31.9742 22.2371 31.9721C22.2398 31.9679 22.2401 31.9692 22.2338 31.9741C22.2271 31.9793 22.2151 31.9867 22.1976 31.9932C22.18 31.9996 22.1612 32.0035 22.1436 32.0045C22.1058 32.0067 22.0985 31.9959 22.1101 32.0039C22.1162 32.0082 22.1188 32.0121 22.1176 32.0103C22.1161 32.0081 22.1044 31.9899 22.0939 31.9446L20.1458 32.3972C20.4109 33.5387 21.3717 34.0529 22.26 34.0011C23.0751 33.9536 23.9975 33.4059 24.1967 32.3575L22.2318 31.9843ZM22.5365 35.9218C22.7092 36.0403 22.8051 36.2139 22.8232 36.3776C22.8391 36.5213 22.8022 36.712 22.5905 36.9133L23.969 38.3624C25.3386 37.0596 24.9454 35.149 23.6679 34.2726L22.5365 35.9218ZM22.5905 36.9133C22.4099 37.0851 22.0571 37.1899 21.7664 37.1234C21.6416 37.0949 21.5584 37.0415 21.5024 36.9767C21.449 36.9149 21.3705 36.7854 21.3506 36.5169L19.3561 36.6651C19.4031 37.2982 19.6161 37.8527 19.9892 38.2845C20.3597 38.7132 20.838 38.9627 21.3203 39.073C22.2437 39.2843 23.2871 39.011 23.969 38.3624L22.5905 36.9133ZM21.3506 36.5169C21.3305 36.2475 21.3888 36.104 21.4344 36.0311C21.4819 35.955 21.5583 35.8879 21.678 35.8398C21.9547 35.7283 22.322 35.7747 22.5365 35.9218L23.6679 34.2726C22.8878 33.7374 21.8136 33.6292 20.9311 33.9845C20.4711 34.1697 20.0384 34.4912 19.7385 34.9709C19.4367 35.4537 19.3091 36.033 19.3561 36.6651L21.3506 36.5169ZM95.1629 41.4549C93.6357 41.4549 89.6779 41.4548 85.4439 41.4548C81.2099 41.4547 76.6997 41.4547 74.068 41.4547V43.4547C76.6997 43.4547 81.2098 43.4547 85.4438 43.4548C89.6778 43.4548 93.6357 43.4549 95.1629 43.4549V41.4549ZM92.6327 32.9684C94.0728 35.4555 94.2754 35.8735 95.62 38.5117L97.4019 37.6036C96.0504 34.9516 95.8294 34.4978 94.3634 31.9662L92.6327 32.9684ZM95.62 38.5117C95.9928 39.2431 96.3098 40.1397 96.274 40.7684C96.2581 41.0471 96.1796 41.1687 96.106 41.2342C96.0223 41.3087 95.7817 41.4549 95.1629 41.4549V43.4549C96.0713 43.4549 96.8594 43.2411 97.4357 42.7282C98.022 42.2064 98.2347 41.5132 98.2707 40.8823C98.3387 39.6917 97.8026 38.3897 97.4019 37.6036L95.62 38.5117ZM79.3253 44.3846C79.1592 44.3471 77.9986 44.0446 76.8061 43.5586C76.2101 43.3157 75.6395 43.0402 75.1902 42.7471C74.7122 42.4354 74.5032 42.1878 74.4433 42.0517L72.6129 42.8577C72.9127 43.5387 73.5282 44.0509 74.0976 44.4223C74.6957 44.8124 75.3955 45.1434 76.0512 45.4106C77.3621 45.945 78.6303 46.278 78.8852 46.3355L79.3253 44.3846ZM74.5147 42.6176C74.5073 42.6624 74.5035 42.5809 74.7172 42.3914C74.9217 42.21 75.252 41.9966 75.7318 41.7699C76.6883 41.318 78.0864 40.884 79.8429 40.5295L79.4471 38.569C77.6054 38.9408 76.035 39.4147 74.8775 39.9616C74.3003 40.2343 73.7873 40.5429 73.3903 40.895C73.0024 41.2389 72.6388 41.7021 72.5414 42.2917L74.5147 42.6176ZM57.2429 39.787C57.8818 38.4 59.8448 35.0695 62.0399 31.4583C64.2189 27.874 66.5782 24.091 67.9752 21.8344L66.2747 20.7817C64.8825 23.0303 62.5155 26.8258 60.3309 30.4195C58.1627 33.9864 56.125 37.4335 55.4264 38.9502L57.2429 39.787ZM66.3613 41.4542C63.4676 41.3678 62.1419 41.4538 59.1351 41.4538V43.4538C62.2452 43.4538 63.4385 43.3678 66.3016 43.4534L66.3613 41.4542ZM59.1351 41.4538C58.645 41.4538 58.1948 41.4419 57.8055 41.3891C57.4034 41.3346 57.1642 41.2481 57.0388 41.1654C56.9612 41.1141 56.9343 41.0783 56.9231 40.9714C56.9053 40.8018 56.9429 40.4382 57.2429 39.787L55.4264 38.9502C55.0576 39.7507 54.8625 40.4987 54.934 41.1799C55.0119 41.9236 55.3961 42.4776 55.9374 42.8348C56.4309 43.1604 57.0184 43.3007 57.5367 43.371C58.0678 43.443 58.6316 43.4538 59.1351 43.4538V41.4538ZM62.7291 24.4501C62.7274 24.4518 62.7411 24.4381 62.7783 24.4042C62.8122 24.3733 62.8579 24.3327 62.9148 24.2836C63.0283 24.1854 63.1807 24.0579 63.3628 23.9122C63.7282 23.62 64.2036 23.2623 64.7179 22.9238C65.2365 22.5825 65.7706 22.2766 66.2565 22.0731C66.7699 21.8581 67.1028 21.812 67.27 21.8359L67.5522 19.8559C66.8421 19.7547 66.0996 19.9705 65.4839 20.2283C64.8406 20.4977 64.1919 20.8757 63.6183 21.2532C62.4841 21.9997 61.5131 22.8328 61.2986 23.0524L62.7291 24.4501ZM66.7455 21.5922C66.8222 21.6605 66.8526 21.7112 66.8765 21.7896C66.9095 21.8976 66.9374 22.0917 66.9219 22.463C66.8896 23.2365 66.6987 24.3728 66.421 26.3349L68.4012 26.6152C68.6633 24.7639 68.8824 23.4513 68.9202 22.5464C68.9397 22.0785 68.9177 21.626 68.7894 21.2058C68.6521 20.756 68.41 20.3968 68.0767 20.0995L66.7455 21.5922ZM77.8785 8.88026C78.6032 9.79426 80.6979 13.0209 82.9784 16.6621C85.2425 20.2771 87.6371 24.2154 88.9417 26.4987L90.6782 25.5066C89.3535 23.1879 86.942 19.2227 84.6734 15.6005C82.4212 12.0046 80.2566 8.66051 79.4457 7.63772L77.8785 8.88026ZM71.4932 15.5756C73.1247 13.014 73.5107 12.305 75.2497 9.79749L73.6062 8.65771C71.8374 11.2081 71.4132 11.9783 69.8063 14.5011L71.4932 15.5756ZM75.2497 9.79749C75.8704 8.90249 76.3924 8.4176 76.7825 8.2761C76.932 8.22186 77.0463 8.22356 77.1723 8.27181C77.3221 8.32915 77.5643 8.48393 77.8785 8.88026L79.4457 7.63772C78.9922 7.06566 78.4786 6.63033 77.8873 6.40398C77.2723 6.16854 76.6601 6.19297 76.1005 6.39599C75.0721 6.76902 74.2449 7.73684 73.6062 8.65771L75.2497 9.79749ZM89.4844 20.9601C89.4786 20.9413 89.4922 20.9888 89.5178 21.1404C89.5402 21.2727 89.5661 21.4504 89.5914 21.6624C89.642 22.087 89.6879 22.6315 89.6993 23.2031C89.7108 23.7785 89.6867 24.3567 89.6067 24.8576C89.5233 25.3793 89.3946 25.7153 89.2688 25.8897L90.8906 27.06C91.2864 26.5115 91.4796 25.8117 91.5816 25.1733C91.6869 24.5141 91.7118 23.8078 91.6989 23.1632C91.686 22.5148 91.6343 21.9036 91.5773 21.4257C91.5246 20.9831 91.4577 20.5713 91.3947 20.3681L89.4844 20.9601ZM89.2687 25.8897C89.501 25.5678 89.8223 25.6016 89.7974 25.5989C89.7653 25.5953 89.6084 25.5622 89.2672 25.3971C88.6022 25.0754 87.5172 24.3932 85.8189 23.1302L84.6254 24.7351C86.3454 26.0142 87.5543 26.7901 88.3961 27.1974C88.8083 27.3968 89.2079 27.5459 89.5778 27.5868C89.9549 27.6284 90.5235 27.5688 90.8906 27.0599L89.2687 25.8897ZM68.7892 54.8832C68.7401 56.1339 68.7402 57.7886 68.7893 59.0392L70.7877 58.9608C70.7407 57.7624 70.7407 56.16 70.7877 54.9616L68.7892 54.8832ZM68.9254 50.2044C68.9271 50.246 68.9286 50.287 68.9301 50.3273L70.9287 50.254C70.9272 50.2121 70.9256 50.1694 70.9239 50.1259L68.9254 50.2044ZM68.9301 50.3273C69.002 52.2873 68.8911 52.5797 68.8023 54.5699L70.8004 54.659C70.8825 52.8172 71.0045 52.3205 70.9287 50.254L68.9301 50.3273ZM68.8023 54.5699C68.7979 54.6701 68.7935 54.7744 68.7892 54.8832L70.7877 54.9616C70.7918 54.8564 70.7961 54.7557 70.8004 54.659L68.8023 54.5699ZM70.2984 51.2201C70.6439 51.083 71.2458 51.0221 71.7317 51.1561C71.961 51.2194 72.1082 51.3106 72.1942 51.3999C72.2667 51.4753 72.3358 51.5884 72.3504 51.804L74.3458 51.6682C74.3005 51.0025 74.0469 50.4409 73.6354 50.0133C73.2374 49.5995 72.7393 49.3594 72.2635 49.2281C71.3393 48.9732 70.2919 49.0709 69.5605 49.3612L70.2984 51.2201ZM72.3504 51.804C72.3776 52.203 72.2981 52.4613 72.1955 52.6392C72.0893 52.8235 71.9196 52.9875 71.6715 53.1311C71.1465 53.4348 70.4073 53.5689 69.7306 53.6169L69.8721 55.6119C70.6325 55.558 71.7448 55.3992 72.6729 54.8623C73.1514 54.5855 73.6087 54.1924 73.9282 53.638C74.2515 53.0772 74.3967 52.4154 74.3458 51.6682L72.3504 51.804ZM69.7306 53.6169C69.3615 53.6431 69.0528 53.6415 68.8504 53.6415V55.6415C69.0478 55.6415 69.423 55.6438 69.8721 55.6119L69.7306 53.6169ZM78.3244 54.848C78.2754 56.0987 78.2754 57.7534 78.3245 59.004L80.3229 58.9256C80.2759 57.7272 80.2759 56.1248 80.3229 54.9264L78.3244 54.848ZM78.4606 50.1693C78.4623 50.2109 78.4638 50.2519 78.4653 50.2921L80.464 50.2188C80.4624 50.1768 80.4608 50.1341 80.4591 50.0908L78.4606 50.1693ZM78.4653 50.2921C78.5399 52.3268 78.4182 52.5581 78.3286 54.7444L80.3269 54.8262C80.4091 52.8195 80.5422 52.351 80.464 50.2188L78.4653 50.2921ZM78.3286 54.7444C78.3272 54.7785 78.3258 54.813 78.3244 54.848L80.3229 54.9264C80.3242 54.8926 80.3256 54.8592 80.3269 54.8262L78.3286 54.7444ZM79.8336 51.1849C80.1307 51.067 80.7601 51.0219 81.3181 51.2004C81.8464 51.3695 82.0438 51.6306 82.0656 51.9508L84.0609 51.815C83.9628 50.3728 82.8992 49.6064 81.9275 49.2955C80.9854 48.9941 79.8755 49.0165 79.0957 49.326L79.8336 51.1849ZM82.0656 51.9508C82.0977 52.4231 81.999 52.7132 81.8809 52.9024C81.7578 53.0995 81.5632 53.2668 81.2841 53.405C80.6925 53.6978 79.9037 53.7724 79.3057 53.7855L79.3498 55.7851C79.9938 55.7709 81.1614 55.6973 82.1714 55.1974C82.6931 54.9392 83.2106 54.5489 83.5773 53.9617C83.9488 53.3667 84.1175 52.6459 84.0609 51.815L82.0656 51.9508ZM79.3057 53.7855C79.1577 53.7888 79.0327 53.7883 78.9253 53.7883V55.7883C79.0255 55.7883 79.175 55.7889 79.3498 55.7851L79.3057 53.7855ZM69.0086 32.6485C69.5094 34.3378 71.3083 34.8433 72.7425 34.4099C74.2737 33.9471 75.5628 32.4822 75.8083 30.132L73.8192 29.9242C73.6434 31.6066 72.8035 32.3021 72.1639 32.4954C71.4273 32.718 71.0137 32.3753 70.9261 32.08L69.0086 32.6485ZM75.8083 30.132C75.9391 28.8804 75.8804 27.6135 75.4694 26.649C75.2582 26.1534 74.928 25.6785 74.4235 25.3647C73.9034 25.0412 73.3015 24.9535 72.6828 25.0604L73.0231 27.0312C73.2355 26.9945 73.3252 27.0369 73.3672 27.063C73.4248 27.0988 73.5273 27.1933 73.6295 27.4331C73.8452 27.9393 73.9359 28.807 73.8192 29.9242L75.8083 30.132ZM72.6828 25.0604C71.959 25.1854 71.3442 25.6514 70.8762 26.1511C70.3907 26.6696 69.9645 27.3289 69.6309 28.0319C68.9832 29.3967 68.572 31.1755 69.0086 32.6485L70.9261 32.08C70.6893 31.281 70.8898 30.0441 71.4378 28.8894C71.7019 28.3327 72.0195 27.8563 72.3361 27.5181C72.6703 27.1613 72.916 27.0497 73.0231 27.0312L72.6828 25.0604ZM82.2395 24.508L78.0574 24.9258L78.2563 26.9159L82.4383 26.4981L82.2395 24.508ZM77.16 25.8411L76.8971 29.1275L78.8907 29.287L79.1537 26.0006L77.16 25.8411ZM78.1585 30.1716C80.1239 29.6323 80.6119 30.1589 80.7197 30.3239C80.8123 30.4657 80.868 30.6757 80.8569 30.9367C80.8457 31.2014 80.7683 31.4355 80.6916 31.5685L82.4242 32.5675C82.6746 32.1332 82.8313 31.5811 82.8551 31.0217C82.8791 30.4586 82.7708 29.8069 82.3942 29.2302C81.5635 27.9584 79.8924 27.6219 77.6293 28.2429L78.1585 30.1716ZM80.6916 31.5685C80.4613 31.968 79.9854 32.3723 79.4275 32.5634C78.8915 32.7469 78.3846 32.7046 77.9699 32.4015L76.7899 34.0164C77.8474 34.789 79.07 34.7997 80.0753 34.4555C81.0586 34.1189 81.9357 33.4149 82.4242 32.5675L80.6916 31.5685ZM152.815 19.3278C152.815 21.2733 151.653 23.753 149.657 26.4895C147.69 29.1858 145.032 31.9722 142.299 34.4994C139.571 37.023 136.794 39.2646 134.609 40.8715C133.516 41.6757 132.581 42.3134 131.881 42.7456C131.53 42.9627 131.252 43.1188 131.052 43.2171C130.951 43.2665 130.886 43.2936 130.85 43.3062C130.792 43.3267 130.855 43.2949 130.981 43.2949V45.2949C131.204 45.2949 131.402 45.2321 131.516 45.1921C131.651 45.1442 131.793 45.0812 131.933 45.0124C132.215 44.8742 132.554 44.681 132.932 44.4472C133.693 43.9774 134.675 43.3062 135.794 42.4827C138.036 40.8342 140.871 38.5451 143.657 35.9677C146.44 33.3939 149.2 30.509 151.273 27.6683C153.316 24.8679 154.815 21.9452 154.815 19.3278H152.815ZM131.046 43.297C131.079 43.2991 130.993 43.2923 130.728 43.18C130.493 43.0802 130.185 42.9281 129.81 42.7214C129.062 42.3089 128.096 41.7092 126.984 40.9581C124.763 39.4574 122.002 37.3836 119.293 35.0714C116.58 32.7564 113.944 30.2234 111.956 27.8053C109.929 25.3406 108.718 23.1634 108.585 21.5397L106.591 21.7033C106.779 23.9881 108.359 26.5802 110.411 29.0757C112.501 31.6178 115.233 34.2358 117.995 36.5927C120.76 38.9526 123.58 41.0719 125.865 42.6154C127.006 43.3863 128.025 44.0215 128.845 44.4731C129.254 44.6983 129.626 44.8854 129.948 45.0217C130.24 45.1454 130.59 45.2715 130.916 45.2928L131.046 43.297ZM108.585 21.5397C108.033 14.816 111.541 10.0637 115.814 8.57105C117.953 7.82367 120.316 7.87477 122.55 8.91193C124.786 9.94993 126.959 12.0082 128.635 15.3846L130.426 14.4953C128.587 10.7893 126.113 8.36087 123.392 7.09791C120.67 5.83411 117.768 5.76997 115.154 6.68295C109.922 8.51104 105.974 14.182 106.591 21.7033L108.585 21.5397ZM128.735 14.3339L124.586 19.7786L126.177 20.9908L130.326 15.5461L128.735 14.3339ZM124.667 21.084L128.816 25.3248L130.245 23.9262L126.096 19.6854L124.667 21.084ZM128.65 24.1518L125.802 29.4474L127.563 30.3948L130.411 25.0992L128.65 24.1518ZM125.882 30.5208L130.529 36.722L132.13 35.5227L127.483 29.3214L125.882 30.5208ZM132.325 36.0306L131.726 29.5246L129.734 29.7081L130.334 36.2141L132.325 36.0306ZM131.546 30.194L135.294 24.8984L133.661 23.7431L129.913 29.0387L131.546 30.194ZM135.226 23.6582L131.479 19.4217L129.981 20.7468L133.728 24.9833L135.226 23.6582ZM134.829 15.2487C136.08 11.3929 140.567 8.88946 144.849 9.17045C146.948 9.30819 148.916 10.1172 150.361 11.7027C151.805 13.2853 152.815 15.7386 152.815 19.3278H154.815C154.815 15.3564 153.689 12.3839 151.839 10.3551C149.992 8.32902 147.51 7.34076 144.98 7.17475C140.005 6.84825 134.523 9.7115 132.927 14.6313L134.829 15.2487ZM131.583 20.6062L134.731 15.4619L133.025 14.418L129.877 19.5623L131.583 20.6062ZM186.04 6.09749C186.084 4.03989 187.196 2.82747 188.529 2.3025C189.932 1.75029 191.509 1.97835 192.436 2.77752L193.742 1.26298C192.157 -0.104029 189.764 -0.333109 187.796 0.441567C185.76 1.24349 184.103 3.142 184.04 6.05436L186.04 6.09749ZM189.467 10.2036C188.503 10.3177 187.667 10.0304 187.07 9.41368C186.465 8.78893 186.005 7.71917 186.04 6.09749L184.04 6.05436C183.997 8.06676 184.567 9.70445 185.633 10.8051C186.707 11.9137 188.182 12.3697 189.703 12.1897L189.467 10.2036ZM188.964 10.413C188.852 10.5019 188.604 10.6324 188.166 10.7694C187.744 10.9012 187.214 11.0182 186.597 11.118C185.363 11.3174 183.856 11.4357 182.326 11.486C180.798 11.5362 179.269 11.518 177.998 11.4504C176.692 11.381 175.753 11.2634 175.347 11.1465L174.794 13.0685C175.446 13.2561 176.596 13.3787 177.892 13.4476C179.223 13.5184 180.809 13.5369 182.391 13.4849C183.97 13.433 185.568 13.3102 186.916 13.0924C187.589 12.9836 188.219 12.848 188.762 12.6784C189.288 12.5141 189.81 12.2947 190.206 11.9802L188.964 10.413ZM175.347 11.1465C175.193 11.1022 174.927 11.0296 174.672 11.045C174.612 11.0486 174.068 11.0728 173.79 11.6011C173.507 12.1386 173.808 12.6043 173.841 12.6566C173.977 12.8732 174.189 13.0402 174.292 13.121C174.436 13.2333 174.614 13.357 174.811 13.4867C175.597 14.0027 176.917 14.756 178.426 15.5538C181.42 17.1365 185.377 19.0099 187.613 19.5866L188.113 17.65C186.134 17.1398 182.371 15.3771 179.361 13.7857C177.868 12.9966 176.615 12.2783 175.909 11.8148C175.733 11.6995 175.606 11.6091 175.522 11.5439C175.398 11.4472 175.459 11.4733 175.534 11.5915C175.536 11.5946 175.828 12.0218 175.56 12.5321C175.424 12.7899 175.214 12.9177 175.076 12.9747C174.946 13.0285 174.838 13.0386 174.792 13.0414C174.66 13.0493 174.617 13.0176 174.794 13.0685L175.347 11.1465ZM187.613 19.5866C187.357 19.5205 187.292 19.3453 187.33 19.4192C187.363 19.482 187.418 19.6324 187.473 19.9145C187.579 20.4704 187.637 21.299 187.653 22.38C187.685 24.5318 187.551 27.4442 187.436 30.6776C187.32 33.8902 187.224 37.3918 187.339 40.6526C187.454 43.8966 187.779 46.9845 188.542 49.3392L190.445 48.7224C189.77 46.6418 189.451 43.7823 189.338 40.5821C189.226 37.3987 189.319 33.9592 189.434 30.7493C189.549 27.5602 189.686 24.5686 189.653 22.3502C189.636 21.2461 189.578 20.2731 189.437 19.5378C189.367 19.1742 189.266 18.8067 189.104 18.4949C188.947 18.1941 188.648 17.7879 188.113 17.65L187.613 19.5866ZM188.542 49.3392C188.581 49.4576 188.68 49.7199 188.94 49.9203C189.28 50.1818 189.683 50.1871 189.986 50.0709C190.225 49.9793 190.383 49.8248 190.458 49.7441C190.547 49.6488 190.62 49.5464 190.679 49.4562C190.902 49.1146 191.142 48.5864 191.382 47.9996C191.876 46.7898 192.485 45.0287 193.093 43.1783C194.297 39.5104 195.57 35.2466 195.901 34.2187L193.997 33.6059C193.623 34.7686 192.416 38.8285 191.192 42.5545C190.586 44.401 189.995 46.1043 189.53 47.2436C189.29 47.8314 189.111 48.1988 189.004 48.3638C188.98 48.4002 188.976 48.4001 188.994 48.3811C188.998 48.3766 189.09 48.2724 189.271 48.2032C189.516 48.1094 189.867 48.1094 190.161 48.336C190.376 48.5016 190.437 48.6995 190.445 48.7224L188.542 49.3392ZM195.901 34.2187C195.9 34.2202 195.894 34.2387 195.88 34.2681C195.866 34.2963 195.836 34.3492 195.784 34.4101C195.668 34.5462 195.427 34.7254 195.082 34.714C194.793 34.7044 194.617 34.563 194.575 34.5274C194.522 34.4824 194.506 34.4536 194.524 34.4796C194.616 34.6105 194.787 34.9706 195.028 35.6132C195.49 36.8414 196.061 38.6964 196.676 40.6754C197.284 42.6323 197.93 44.6995 198.526 46.2888C198.823 47.0793 199.121 47.79 199.41 48.3215C199.553 48.584 199.715 48.8437 199.9 49.0543C200.051 49.2279 200.376 49.5555 200.87 49.607L201.077 47.6178C201.373 47.6486 201.483 47.8262 201.405 47.7377C201.36 47.6862 201.279 47.5717 201.167 47.3653C200.946 46.959 200.686 46.353 200.399 45.5864C199.827 44.0617 199.198 42.0535 198.586 40.0822C197.981 38.133 197.388 36.2071 196.901 34.9102C196.668 34.2904 196.42 33.7019 196.166 33.3368C196.097 33.2387 196 33.1143 195.871 33.004C195.752 32.9031 195.504 32.7269 195.148 32.7151C194.737 32.7014 194.434 32.9111 194.263 33.1124C194.112 33.289 194.037 33.4811 193.997 33.6059L195.901 34.2187ZM200.87 49.607C201.608 49.6841 201.997 49.1077 202.115 48.9008C202.268 48.6314 202.369 48.3034 202.443 47.9931C202.597 47.3517 202.707 46.4705 202.787 45.4592C202.95 43.4203 203.008 40.6696 202.999 37.8193C202.98 32.1407 202.693 25.8957 202.394 23.9235L200.416 24.2238C200.691 26.0315 200.98 32.1387 200.999 37.8258C201.008 40.6584 200.95 43.344 200.794 45.2999C200.715 46.2862 200.614 47.042 200.498 47.5281C200.47 47.6459 200.443 47.7377 200.419 47.8065C200.408 47.8404 200.398 47.8659 200.39 47.8843C200.381 47.9029 200.377 47.9107 200.377 47.9104C200.377 47.91 200.379 47.9066 200.383 47.9008C200.387 47.895 200.394 47.886 200.403 47.8745C200.42 47.8528 200.454 47.815 200.507 47.7742C200.625 47.6834 200.827 47.5916 201.077 47.6178L200.87 49.607ZM192.436 2.77752C193.104 3.35333 193.725 4.46187 193.995 5.69103C194.268 6.93415 194.125 8.02251 193.632 8.67124L195.225 9.88084C196.222 8.5675 196.282 6.78028 195.949 5.26218C195.612 3.73012 194.819 2.1918 193.742 1.26298L192.436 2.77752ZM202.394 23.9235C201.782 19.9001 200.663 16.1723 199.345 13.3905C198.687 12.0026 197.963 10.8135 197.2 9.93713C196.462 9.08926 195.562 8.38926 194.533 8.28148L194.325 10.2706C194.594 10.2988 195.065 10.5305 195.691 11.2501C196.293 11.9413 196.926 12.9556 197.538 14.247C198.759 16.824 199.829 20.3591 200.416 24.2238L202.394 23.9235ZM168.843 37.4559C168.625 35.6455 168.384 33.9654 168.222 32.6959C168.139 32.0508 168.076 31.509 168.041 31.0825C168.004 30.6265 168.008 30.3939 168.02 30.3158L166.043 30.0139C165.992 30.3511 166.012 30.7995 166.048 31.2448C166.087 31.7195 166.154 32.2992 166.238 32.95C166.407 34.2724 166.639 35.8824 166.858 37.6954L168.843 37.4559ZM170.283 47.325C169.845 45.6314 169.937 45.0577 169.702 43.1127L167.717 43.3522C167.919 45.0307 167.865 45.9651 168.346 47.8254L170.283 47.325ZM169.702 43.1127C169.59 42.1804 169.426 41.1962 169.266 40.2397C169.106 39.2736 168.949 38.3353 168.843 37.4559L166.858 37.6954C166.97 38.6277 167.134 39.6119 167.294 40.5684C167.455 41.5345 167.611 42.4728 167.717 43.3522L169.702 43.1127ZM180.324 30.5245C180.276 30.9886 180.193 31.5583 180.096 32.2255C180.001 32.8832 179.896 33.6204 179.811 34.3846L181.799 34.6044C181.88 33.8773 181.981 33.1702 182.076 32.5115C182.17 31.8623 182.26 31.2436 182.313 30.7283L180.324 30.5245ZM179.811 34.3846C179.619 36.1292 179.537 37.2887 179.455 38.4353C179.375 39.5758 179.295 40.7034 179.106 42.4075L181.094 42.6273C181.287 40.8827 181.369 39.7232 181.45 38.5766C181.531 37.4361 181.611 36.3085 181.799 34.6044L179.811 34.3846ZM179.106 42.4075C178.978 43.5708 178.854 44.7873 178.659 45.7864C178.561 46.2855 178.454 46.6857 178.339 46.9736C178.208 47.2976 178.13 47.3201 178.194 47.2799L179.252 48.9775C179.747 48.6687 180.025 48.1408 180.194 47.7193C180.378 47.2615 180.514 46.7206 180.622 46.1695C180.837 45.0681 180.97 43.7477 181.094 42.6273L179.106 42.4075ZM168.02 30.3158C168.069 29.9949 168.168 29.8659 168.236 29.8021C168.318 29.7265 168.468 29.6411 168.768 29.583C169.073 29.524 169.459 29.5068 169.947 29.514C170.484 29.522 170.907 29.55 171.544 29.5647L171.591 27.5653C171.115 27.5543 170.452 27.5213 169.977 27.5143C169.453 27.5065 168.901 27.5202 168.388 27.6194C167.871 27.7195 167.324 27.9196 166.874 28.338C166.412 28.7683 166.146 29.3421 166.043 30.0139L168.02 30.3158ZM171.544 29.5647C172.801 29.5937 175.325 29.4948 176.573 29.3762L176.383 27.3851C175.208 27.4969 172.763 27.5923 171.591 27.5653L171.544 29.5647ZM176.573 29.3762C177.686 29.2703 178.782 29.2131 179.551 29.4223C179.915 29.5215 180.099 29.6541 180.191 29.772C180.269 29.871 180.37 30.072 180.324 30.5245L182.313 30.7283C182.399 29.8895 182.234 29.1382 181.768 28.5416C181.317 27.964 180.683 27.6578 180.076 27.4925C178.902 27.1728 177.446 27.2841 176.383 27.3851L176.573 29.3762ZM178.194 47.2799C178.275 47.2299 178.322 47.2216 178.272 47.237C178.239 47.2469 178.181 47.2619 178.093 47.2797C177.918 47.315 177.671 47.3523 177.363 47.3846C176.748 47.449 175.937 47.4889 175.058 47.465L175.003 49.4642C175.97 49.4905 176.869 49.4473 177.571 49.3737C177.921 49.337 178.234 49.2915 178.489 49.2401C178.615 49.2145 178.739 49.1851 178.852 49.1508C178.947 49.1221 179.103 49.0699 179.252 48.9775L178.194 47.2799ZM175.058 47.465C174.578 47.4519 174.079 47.4535 173.598 47.455C173.112 47.4565 172.643 47.4578 172.2 47.4457L172.145 49.445C172.625 49.458 173.124 49.4564 173.605 49.455C174.091 49.4535 174.56 49.4521 175.003 49.4642L175.058 47.465ZM172.2 47.4457C171.781 47.4343 171.179 47.3795 170.686 47.2643C170.436 47.2058 170.266 47.1434 170.173 47.0934C170.047 47.0258 170.217 47.0714 170.283 47.325L168.346 47.8254C168.493 48.3953 168.946 48.7046 169.227 48.8555C169.541 49.0241 169.903 49.135 170.231 49.2118C170.896 49.3673 171.641 49.4313 172.145 49.445L172.2 47.4457ZM40.2655 41.4474H2.97737V43.4474H40.2655V41.4474Z" fill="white"/>
</svg>
