<svg width="403" height="152" viewBox="0 0 403 152" fill="none" xmlns="http://www.w3.org/2000/svg">
<path d="M401 2L383.335 38.8127M383.335 38.8127C380.755 46.3327 367.163 67.806 356.382 73.2962M383.335 38.8127C383.335 38.8127 363.334 22.7442 360.613 6.31877M310.107 70.2774L313.37 9.09594M299.666 21.3322C294.663 17.2535 287.006 9.09594 296.403 9.09594C305.8 9.09594 332.512 7.3479 344.693 6.47388C356.874 5.59985 351.218 2.97779 351.218 2.97779M281.904 9.54361C282.619 24.8747 281.507 26.9153 280.792 42.2464C280.399 50.6642 280.4 61.8597 280.792 70.2774M234.56 74.8074L238.274 14.7148M238.274 14.7148L238.473 11.4835M238.274 14.7148C225.507 17.011 212.199 19.6545 205.192 19.6545M238.274 14.7148C246.687 13.2016 254.866 11.8392 260.853 11.4835C275.923 10.5882 268.926 7.90217 268.926 7.90217M149.652 76.1755C149.736 64.9702 149.736 52.3457 149.736 50.6056C149.736 38.0777 148.549 27.7894 151.885 20.1493C155.221 12.5091 167.989 53.106 168.639 56.006C169.289 58.9061 178.718 83.5996 182.042 75.055C189.861 54.9557 189.861 25.1535 192.095 11.1851M93.6359 22.1428C94.6805 21.7962 95.8427 21.4182 97.0933 21.0202M97.0933 21.0202C108.248 17.4699 126.429 12.3216 130.808 13.584M97.0933 21.0202C96.2528 29.0803 95.1325 40.8276 94.2798 51.8776M128.591 69.0842C118.236 71.0143 98.8353 80.9972 93.5276 81.832C92.51 79.5349 93.1668 66.3002 94.2798 51.8776M94.2798 51.8776L118.777 43.5042M10.3782 17.7509C10.9047 34.325 10.0856 36.5311 9.5595 53.1053C9.27061 62.2056 9.27103 74.3088 9.55969 83.4091M10.3782 17.7509H6.28546M10.3782 17.7509H15.2894M9.55969 83.4091H5.46692M9.55969 83.4091H13.6524M36.5716 17.7509V80.6316C36.5716 80.6316 62.7623 86.8166 70.8904 70.3233C79.0186 53.83 70.7098 30.7394 62.7623 24.9667C54.8148 19.1941 48.3122 17.7509 36.5716 17.7509Z" stroke="white" stroke-width="3.28926" stroke-linecap="round" stroke-linejoin="round"/>
<path d="M3.72341 124.002C35.5949 121.4 67.5402 119.19 99.3781 116.194C153.258 111.123 205.994 98.5698 259.933 94.1672C272.561 93.1365 285.226 92.391 297.887 92.7528C300.773 92.8353 312.168 92.2204 315.002 94.3859C316.648 95.6445 310.858 95.7604 308.695 95.9949C294.734 97.5081 280.496 97.5633 266.669 100.099C243.783 104.295 218.605 113.015 198.774 124.494C189.395 129.923 193.788 131.782 202.718 131.663C267.424 130.801 330.634 117.673 393.443 104.312" stroke="#FF0000" stroke-width="4.11157" stroke-linecap="round" stroke-linejoin="round"/>
</svg>
