<svg width="517" height="517" viewBox="0 0 517 517" fill="none" xmlns="http://www.w3.org/2000/svg">
<path d="M258.996 114.719C181.801 114.719 119 177.52 119 254.715C119 331.91 181.801 394.711 258.996 394.711C336.191 394.711 398.992 331.91 398.992 254.715C398.992 177.52 336.191 114.719 258.996 114.719V114.719ZM258.996 364.695C198.355 364.695 149.016 315.359 149.016 254.715C149.016 194.074 198.355 144.734 258.996 144.734C319.641 144.734 368.977 194.074 368.977 254.715C368.977 315.359 319.641 364.695 258.996 364.695V364.695Z" fill="black"/>
<path d="M408.367 66C385.555 66 367 84.5586 367 107.367C367 130.18 385.555 148.738 408.367 148.738C431.18 148.738 449.738 130.18 449.738 107.367C449.738 84.5547 431.18 66 408.367 66ZM408.367 118.719C402.109 118.719 397.016 113.625 397.016 107.367C397.016 101.105 402.109 96.0156 408.367 96.0156C414.629 96.0156 419.723 101.105 419.723 107.367C419.723 113.625 414.629 118.719 408.367 118.719Z" fill="black"/>
<path d="M75.875 15H441.125C474.698 15 502 42.3024 502 75.875V441.125C502 474.698 474.698 502 441.125 502H336H75.875C42.3024 502 15 474.698 15 441.125V75.875C15 42.3024 42.3024 15 75.875 15Z" stroke="black" stroke-width="30"/>
</svg>
