<svg width="915" height="915" viewBox="0 0 915 915" fill="none" xmlns="http://www.w3.org/2000/svg">
<mask id="mask0" mask-type="alpha" maskUnits="userSpaceOnUse" x="0" y="0" width="915" height="915">
<circle cx="457.5" cy="457.5" r="457.5" fill="#C4C4C4"/>
</mask>
<g mask="url(#mask0)">
<path d="M241.246 -613.32C-459.187 -613.32 -1027 -45.5074 -1027 654.925C-1027 946.711 -928.463 1215.48 -762.849 1429.78L1230.32 1448.84C1404.98 1231.52 1509.49 955.43 1509.49 654.925C1509.49 -45.5074 941.678 -613.32 241.246 -613.32Z" fill="#8B55FF"/>
<rect x="-1072" y="-655" width="2668" height="2151" fill="#8B55FF"/>
<path d="M807.527 734.095C777.026 694.624 765.663 636.164 763.794 611.868C760.43 608.878 748.992 602.897 730.154 602.897C706.605 602.897 629.232 671.3 619.14 700.455C609.048 729.61 383.657 880.992 373.565 906.783C363.473 932.574 391.506 1032.37 401.599 1058.17C411.691 1083.96 502.52 1090.68 546.253 1088.44C589.985 1086.2 643.872 1062.16 667.358 1007.7C697.635 937.506 698.824 942.771 703.241 941.992C722.304 938.628 707.655 935.554 775.008 949.841C812.012 957.691 832.196 998.059 847.895 971.821C860.562 950.652 880.415 869.779 875.929 830.531C871.444 791.284 845.653 783.435 807.527 734.095Z" fill="#72101B"/>
<path d="M739.125 651.115L775.008 601.776L724.547 582.713L647.174 657.843C655.024 675.037 676.329 705.837 698.756 691.484C721.183 677.13 735.013 658.591 739.125 651.115Z" fill="#252934"/>
<path d="M406.084 994.247C403.393 941.319 431.875 889.214 446.453 869.777L20.3399 432.451C-10.6841 497.863 -74.5262 637.209 -81.7029 671.299C-88.8795 705.388 -210.284 861.928 -270.089 935.937C-262.988 986.771 -220.302 989.762 -137.77 1133.29C-55.239 1276.83 249.843 1179.64 426.268 1074.98C410.569 1043.59 408.775 1047.17 406.084 994.247Z" fill="#EBA592"/>
<path fill-rule="evenodd" clip-rule="evenodd" d="M313.012 959.485C313.012 959.485 199.654 946.752 133.596 911.267C112.577 899.976 93.9642 887.729 77.0483 874.338L56.2232 1023.4L43.8884 1160.21L-105.251 1141.14L-210.658 1023.4L-257.754 859.685L-96.2802 602.896L-77.945 618.5C-80.4394 608.119 -81.7026 601.775 -81.7026 601.775L185.178 706.06L313.012 959.485Z" fill="#E39E8B"/>
<path d="M37.1602 1221.88L-67.1253 1193.85C-107.868 1161.33 -198.323 1064.22 -234.206 935.938C-279.06 775.585 -153.469 1017.8 -152.348 1018.92C-151.226 1020.04 -104.13 1106.38 -52.5477 1131.05C-0.965668 1155.72 36.039 1164.69 97.7132 1166.94C147.053 1168.73 249.469 1134.04 276.008 1124.32L350.017 1096.29L228.911 1206.18L37.1602 1221.88Z" fill="#D59583"/>
<path d="M-229.721 1054.8C-264.483 994.247 -277.939 967.335 -292.516 928.087L-236.449 913.51C-223.367 933.694 -194.735 979.221 -184.867 999.854C-172.532 1025.64 -128.799 1087.32 -111.979 1105.26C-95.1589 1123.2 -28.9994 1170.3 37.1602 1181.51C103.32 1192.73 184.057 1172.54 224.426 1160.21C264.794 1147.87 324.226 1101.9 342.167 1090.68C356.52 1081.71 400.526 1044.71 408.327 1035.74C416.127 1026.77 438.603 1068.26 438.603 1077.23C438.603 1086.2 399.356 1128.81 358.987 1160.21C318.619 1191.6 249.095 1223 199.756 1235.34C150.416 1247.67 61.8299 1248.79 9.12653 1240.94C-43.5769 1233.09 -119.829 1190.48 -150.105 1160.21C-183.913 1126.4 -215.932 1078.82 -229.721 1054.8Z" fill="#B3A798"/>
<path d="M-27.8781 584.955C-34.1577 559.837 -24.8876 521.412 -35.7274 513.189C-68.9941 392.457 -169.168 187.325 -187.11 153.236C-209.537 110.625 -201.687 99.4111 -224.114 99.4111C-246.541 99.4111 -314.943 171.177 -329.521 190.24C-339.578 203.392 -386.71 288.919 -394.559 322.56C-402.409 356.2 -408.015 407.782 -451.748 451.515C-495.481 495.247 -506.694 531.131 -527.999 587.198C-549.305 643.265 -542.577 694.847 -496.602 783.434C-453.632 866.229 -424.835 836.137 -402.408 868.656C-379.981 901.176 -340.734 916.875 -309.336 924.724C-277.939 932.574 -210.658 1022.28 -181.503 1043.59C-152.348 1064.89 -146.344 1015.55 -116.067 1026.77C-85.7907 1037.98 -96.2804 1013.31 -59.2759 1013.31C-22.2714 1013.31 -13.3006 1050.38 1.27698 1032.37C20.3399 1008.83 -11.0579 990.883 1.27698 958.364C13.6118 925.845 39.6271 929.209 30.432 837.259C25.9466 792.405 -7.69366 739.702 -7.69366 703.818C-7.69366 667.935 -20.0287 616.353 -27.8781 584.955Z" fill="#79121D"/>
<path d="M613.533 -258.299C597.386 -258.299 567.932 -251.571 555.223 -248.207V-210.081L630.354 170.056L781.736 424.602C799.304 399.185 837.355 339.604 849.017 304.618C863.594 260.885 881.536 166.035 881.536 79.2267C881.536 -10.4812 834.439 -102.432 816.498 -133.83C798.556 -165.227 745.853 -215.688 711.091 -235.872C691.099 -247.48 633.718 -258.299 613.533 -258.299Z" fill="#83141F"/>
<path d="M589.985 736.337L536.16 710.546L514.855 638.78L577.65 601.776L596.713 568.135L589.985 531.131V489.641H625.868L739.125 562.528L658.388 704.94L589.985 736.337Z" fill="#EEAB94" fill-opacity="0.45"/>
<path d="M-128.8 414.51L-70.4894 199.211C-31.9898 146.134 58.9143 27.4199 114.533 -22.8165C184.057 -85.6121 378.05 -143.922 472.243 -159.621C566.437 -175.32 592.228 -118.131 666.237 -77.7624C740.246 -37.3939 747.135 32.6026 759.309 74.7412C773.886 125.202 778.372 187.997 781.736 218.274C784.427 242.495 788.09 286.676 789.585 305.739L720.062 598.411L595.592 802.497L514.855 865.292C482.709 903.044 412.588 978.773 389.264 979.67C360.109 980.791 310.097 965.588 277.129 949.393C213.212 917.995 133.278 857.793 112.29 838.38C67.4365 796.89 16.9758 729.609 -0.965775 692.604C-18.9074 655.6 -26.7568 645.507 -35.7276 580.469C-44.4017 517.582 -34.6062 521.038 -35.7276 456C-36.6247 403.969 -98.1494 406.66 -128.8 414.51Z" fill="#F6B19F"/>
<path d="M510.369 685.876C508.575 673.317 498.035 658.964 490.185 655.6C473.739 661.58 448.247 676.457 459.909 692.604C474.486 712.788 498.035 720.638 510.37 713.91C522.704 707.182 512.612 701.575 510.369 685.876Z" fill="#E49F81" fill-opacity="0.55"/>
<path d="M704.363 655.6C718.716 630.482 729.032 606.635 732.396 599.533L690.907 579.349C679.319 593.926 654.126 626.445 646.053 639.901C635.96 656.722 628.111 695.969 616.898 711.668C605.684 727.367 559.709 711.668 545.131 704.94C530.554 698.212 527.19 663.45 526.068 639.901C524.947 616.353 514.855 628.688 508.127 639.901C501.398 651.115 511.491 692.605 511.491 704.94C511.491 717.275 557.466 776.706 572.044 768.857C586.621 761.007 586.621 792.405 583.257 804.74C579.893 817.075 554.102 828.288 548.495 804.74C542.889 781.191 540.646 799.133 520.462 817.075C500.277 835.016 484.578 829.409 473.365 835.016C462.151 840.623 485.7 838.38 495.792 856.322C505.884 874.263 456.545 866.414 443.088 864.171C429.632 861.929 401.599 869.778 417.297 884.356C432.996 898.933 430.753 917.996 408.326 933.695C385.9 949.394 328.711 975.185 387.021 979.67C445.331 984.156 491.306 922.481 511.491 903.418C531.675 884.356 551.859 860.807 572.044 847.351C592.506 833.709 611.291 810.346 628.111 786.798C644.931 763.25 686.421 686.998 704.363 655.6Z" fill="#FCB8A6"/>
<path d="M738.003 312.816C729.032 332.552 714.829 342.719 708.848 345.335L755.945 366.641C763.794 365.146 781.512 353.633 789.585 319.544C797.659 285.455 792.949 288.894 789.585 294.875C779.867 280.297 759.533 253.16 755.945 261.234C751.459 271.326 749.217 288.147 738.003 312.816Z" fill="#FCB8A6"/>
<path d="M593.595 314.818C585.521 327.377 584.998 346.964 585.746 355.187L696.759 360.794C716.943 341.731 755.742 302.035 749.463 295.755C741.613 287.906 716.943 285.664 696.759 284.542C676.575 283.421 652.781 285.664 634.839 284.542C616.898 283.421 603.687 299.119 593.595 314.818Z" fill="#EEAB94" fill-opacity="0.62"/>
<path d="M692.028 238.458H637.082C619.14 220.517 657.266 231.73 665.115 210.424C672.965 189.119 641.567 146.508 628.111 96.0469C617.346 55.6784 620.635 -66.1749 623.626 -105.796C641.567 -97.5727 685.3 -65.4273 704.363 -49.7285C723.277 -34.1524 744.731 -3.75314 762.673 34.3727C772.765 61.2851 779.493 84.8334 783.979 126.323C787.233 156.424 786.221 214.91 786.221 230.609V275.463L692.028 238.458Z" fill="#FCB8A6"/>
<path d="M586.621 342.744C581.239 356.2 584.378 369.282 586.621 374.142C579.145 370.778 564.194 359.789 564.194 342.744C564.194 321.438 578.772 305.74 586.621 283.313C594.47 260.886 610.17 265.371 628.111 260.885C646.053 256.4 679.693 281.07 672.965 288.919C666.237 296.769 639.325 292.283 621.383 295.647C603.441 299.011 593.349 325.924 586.621 342.744Z" fill="#FCB8A6"/>
<ellipse cx="152.659" cy="519.917" rx="100.921" ry="132.319" fill="#FF9581" fill-opacity="0.53"/>
<path d="M721.399 538.565C689.538 530.743 653.137 567.462 640.096 620.581C628.569 667.532 639.15 711.58 663.764 726.577C674.931 706.765 698.824 664.055 705.062 651.716C712.859 636.292 738.192 588.94 743.158 574.58C747.131 563.093 745.061 555.727 743.529 553.48C737.546 545.927 730.09 540.699 721.399 538.565Z" fill="#FF9581" fill-opacity="0.53"/>
<path d="M631.102 -157.62C635.642 -160.822 650.589 -165.305 674.057 -157.62C703.392 -148.014 759.966 -114.927 775.681 -90.379C791.396 -65.8307 801.874 -45.5517 810.255 -8.19553C818.636 29.1606 813.398 33.4299 798.731 117.748C791.43 159.718 788.801 193.491 788.002 218.144C788.833 247.682 788.253 266.846 788.253 263.971C788.253 258.61 787.196 243.019 788.002 218.144C786.366 159.955 779.256 61.502 751.459 11.9458C709.552 -62.7665 659.509 -77.7621 613.533 -114.767C594.47 -130.11 631.102 -157.62 631.102 -157.62Z" fill="#79121D"/>
<path d="M-98.5232 -45.2425C-115.568 -23.7126 -151.974 22.0385 -168.047 42.2227L-210.658 166.692C-180.008 160.712 -153.918 193.604 -119.829 175.663C-77.2176 153.236 -40.2131 191.362 9.1263 183.512C58.4656 175.663 132.475 112.867 218.819 42.2227C305.162 -28.4219 365.715 -125.98 411.691 -180.926C457.666 -235.872 505.884 -171.955 551.859 -159.62C597.834 -147.286 605.499 -86.5748 614.655 -123.738C633.718 -201.111 550.738 -261.664 535.039 -272.877C510.486 -290.414 472.243 -307.639 411.691 -321.094C376.321 -328.954 291.159 -319.082 260.308 -313.245C218.819 -305.396 159.387 -277.362 132.475 -261.663C107.329 -246.994 59.587 -217.931 13.6117 -171.955C-30.2499 -128.093 -77.2176 -72.1549 -98.5232 -45.2425Z" fill="#79121D"/>
<path d="M573.165 -168.592C548.495 -189.314 523.826 -212.997 492.428 -215.689C453.181 -219.053 424.026 -214.567 388.142 -185.412C352.259 -156.257 311.485 -84.0155 291.706 -35.1512C272.643 11.9455 261.43 61.2846 226.668 107.26C191.906 153.235 122.382 181.269 76.4071 182.39C48.0172 183.083 31.5996 171.803 21.0815 163.073C9.12333 158.31 3.21086 153.235 6.88345 153.235C10.3148 153.235 14.5663 157.665 21.0815 163.073C38.3327 169.944 68.1662 176.167 99.9554 165.57C153.78 147.629 185.178 120.716 199.756 99.4107C214.333 78.105 230.799 42.2909 243.488 6.33862C263.673 -50.85 280.493 -97.9474 309.648 -146.165C338.803 -194.383 382.536 -242.414 430.754 -250.451C464.394 -256.058 519.34 -250.451 557.466 -215.688C586.891 -188.859 606.805 -141.68 607.927 -118.131C609.048 -94.583 601.198 -145.044 573.165 -168.592Z" fill="#83141F"/>
<path d="M382.536 556.921C382.536 539.877 405.71 521.038 415.055 513.189C436.414 495.247 445.332 496.368 463.273 480.67C477.626 468.111 514.107 425.723 519.34 415.631C521.583 407.408 517.098 401.054 508.127 410.024C496.913 421.238 486.821 440.301 471.122 454.878C455.423 469.456 426.268 489.64 409.448 501.975C392.628 514.31 387.021 518.795 374.686 536.737C362.351 554.678 364.594 563.649 371.323 581.591C376.705 595.944 418.419 616.352 421.783 611.867C415.802 607.755 412.588 604.018 402.72 595.047C390.385 583.833 382.536 578.227 382.536 556.921Z" fill="#E49F81" fill-opacity="0.55"/>
<path d="M458.787 592.805C446.228 588.32 430.38 592.432 424.026 595.048C424.026 601.777 436.36 600.654 445.331 600.654C454.302 600.654 458.787 597.29 471.122 600.654C483.457 604.018 489.064 616.353 485.7 609.625C482.336 602.897 474.486 598.412 458.787 592.805Z" fill="#855451"/>
<path d="M536.16 633.174C525.395 633.174 518.219 630.931 514.855 633.174C508.596 637.346 508.351 643.042 504.763 642.145C500.277 641.023 500.785 634.655 507.005 625.324C513.733 615.232 523.775 620.017 539.525 614.111C557.466 607.383 568.68 604.019 576.529 591.684C584.606 578.991 589.247 567.108 586.621 543.466C583.257 513.19 583.257 515.432 583.257 491.884C583.257 468.335 589.985 425.724 589.985 433.574C589.985 441.423 593.349 493.005 593.349 507.583C593.349 522.16 595.592 526.646 600.077 552.437C604.563 578.228 597.835 593.927 593.349 604.019C590.578 610.251 579.331 619.718 567.558 626.446C559.708 630.931 549.616 633.174 536.16 633.174Z" fill="#FFC9BF" fill-opacity="0.75"/>
<path d="M337.682 717.272C321.983 721.758 310.769 720.636 287.221 722.879C290.585 734.092 518.711 782.311 544.01 782.311C564.194 782.311 570.922 776.704 563.073 774.461C556.604 772.613 558.588 763.248 547.374 748.67C536.161 734.093 519.34 717.272 512.612 717.272C505.884 717.272 492.428 720.637 487.943 719.515C483.457 718.394 473.365 710.544 463.273 703.816C453.181 697.088 440.846 697.088 424.026 701.573C407.205 706.059 353.381 712.787 337.682 717.272Z" fill="#CA5E54"/>
<path d="M306.283 755.399C300.901 750.016 292.08 733.813 286.1 725.964C294.323 726.711 308.044 729.317 320.862 728.486C332.336 727.742 344.628 728.432 358.987 730.729C381.414 740.821 393.242 744.338 401.599 746.427C411.028 748.785 440.846 744.889 461.03 749.791C468.284 751.553 473.954 757.313 485.7 761.005C501.766 766.054 511.085 765.909 523.825 773.34C537.281 781.19 555.597 775.582 560.83 778.947C549.617 793.15 523.825 823.801 504.762 828.286C489.326 831.918 467.758 832.772 458.787 830.529C449.816 828.286 426.268 819.315 418.418 817.073C410.569 814.83 370.2 808.102 354.501 800.252C338.803 792.403 313.012 762.127 306.283 755.399Z" fill="#BD514B"/>
<path d="M308.527 729.606C308.527 729.606 288.342 731.848 286.099 726.242C283.857 720.635 293.5 722.653 305.162 726.241C319.74 730.727 353.38 721.757 370.2 732.97C387.02 744.184 405.045 748.253 425.146 746.426C449.816 744.184 470.748 752.78 477.85 757.639C471.122 753.981 453.18 748.187 446.452 747.547C435.289 746.485 419.539 747.547 407.205 747.547C394.87 747.547 369.079 734.486 357.865 731.122C348.894 728.431 321.609 728.485 308.527 729.606Z" fill="#AB463C"/>
<path d="M549.616 781.188C544.009 776.704 528.902 776.702 533.918 776.702C541.766 776.702 554.101 775.581 549.616 781.188Z" fill="#AB463C"/>
<path d="M523.826 198.09C534.59 207.06 504.389 231.73 487.942 242.944C471.122 238.458 471.122 230.516 422.904 210.425C372.443 189.4 307.405 179.027 254.702 175.663C212.539 172.971 169.105 183.139 154.902 186.877C173.965 164.45 231.153 143.143 264.794 137.537C298.434 131.93 351.809 132.429 415.055 148.751C484.578 166.692 510.369 186.876 523.826 198.09Z" fill="#8F4B3C"/>
<path d="M638.203 248.551C633.573 254.725 623.626 275.09 620.262 285.556C637.829 285.556 658.48 283.525 680.814 285.556C717.819 288.92 743.61 299.012 768.28 313.59C792.949 328.167 779.493 339.381 785.1 339.381C790.707 339.381 800.799 310.226 800.799 299.012C800.799 287.799 792.949 276.585 785.1 268.736C777.25 260.886 750.338 249.673 738.003 245.187C725.668 240.702 684.178 232.853 668.48 232.853C652.781 232.853 644.931 239.581 638.203 248.551Z" fill="#8F4B3C"/>
<path d="M132.475 210.424L-43.5769 142.021L-69.3679 166.691L-58.1544 237.336L103.32 327.044L132.475 210.424Z" fill="#50752A"/>
<path d="M103.32 328.166L134.717 211.546L64.0724 184.634V305.739L103.32 328.166Z" fill="#5D9226" fill-opacity="0.44"/>
<path d="M90.985 304.617C90.985 316.279 90.5996 332.025 93.2278 347.569C97.6032 373.448 113.636 393.544 132.475 415.971C156.023 444.005 193.027 458.241 235.639 475.062C277.177 491.458 358.987 506.46 395.992 506.46C432.996 506.46 459.909 482.911 476.729 463.848C490.727 447.984 517.098 413.388 532.796 405.538C541.767 401.053 565.315 403.295 578.772 411.145C593.588 419.788 585.5 468.334 589.985 501.974C594.471 535.615 624.747 555.799 642.689 568.134C660.63 580.469 702.12 593.925 741.367 601.774C780.615 609.624 823.226 607.381 840.046 601.774C856.866 596.167 875.929 584.954 892.749 568.134C909.57 551.313 921.904 528.886 934.239 508.702C944.451 491.992 958.909 464.97 957.788 448.149C956.666 431.329 952.181 422.358 926.39 405.538C903.653 390.71 828.833 366.291 809.77 359.563C790.707 352.835 729.233 340.385 712.212 338.257C676.329 333.772 652.781 338.257 632.596 344.985C612.412 351.714 612.412 350.592 602.32 350.592C592.228 350.592 568.68 348.35 558.587 341.621C548.495 334.893 539.525 327.044 532.796 316.952C526.068 306.859 510.369 290.039 499.156 283.311C487.942 276.583 438.603 255.277 418.419 248.549C400.81 242.68 307.405 214.909 292.828 211.545C278.25 208.18 205.363 196.967 194.149 196.967C182.936 196.967 162.751 194.725 150.417 196.967C138.082 199.21 127.989 203.695 120.14 213.788C113.256 222.639 104.441 237.336 101.077 250.792C97.7131 264.248 90.985 290.039 90.985 304.617Z" fill="#50752A"/>
<path d="M890.506 388.719C883.329 386.028 818.74 359.564 780.614 351.714C762.845 345.858 792.958 394.497 807.7 418.309L808.125 418.996C822.702 442.544 764.915 488.519 760.43 514.31C755.944 540.101 640.569 565.937 647.696 571.498C660.63 581.591 721.781 599.533 749.815 604.018C777.849 608.503 818.74 608.503 838.924 601.775C881.535 587.571 903.749 556.119 912.933 542.344C924.147 525.523 953.302 478.427 956.666 460.485C960.03 442.544 957.264 427.966 940.967 416.753C927.511 403.296 899.477 392.083 890.506 388.719Z" fill="#87FD0C" fill-opacity="0.19"/>
<path d="M512.089 292.283C499.53 281.518 447.947 257.895 436.36 255.278C433.37 257.521 447.007 277.984 472.243 285.555C494.671 292.283 496.39 306.86 512.089 313.588C524.648 318.971 539.898 327.045 546.252 332.651C535.039 322.757 524.648 303.048 512.089 292.283Z" fill="#87FD0C" fill-opacity="0.19"/>
<path d="M409.747 470.166C397.187 475.549 383.582 477.642 378.349 478.016C358.165 479.457 340.223 478.016 300.976 470.166C265.79 463.129 224.724 445.496 207.904 435.404C191.084 425.312 165.293 400.642 168.657 364.759C172.021 328.876 182.113 298.6 189.962 281.779C197.812 264.959 207.904 250.605 231.452 245.895C259.486 240.288 297.612 248.139 341.344 261.595C380.65 273.69 452.358 294.112 480.392 319.903C508.426 345.694 499.454 367.002 492.726 384.944C485.998 402.885 475.906 419.705 460.207 435.404C444.508 451.103 425.445 463.438 409.747 470.166Z" fill="#1A2B3F"/>
<path d="M627.289 396.153C617.197 409.611 615.327 420.075 613.832 427.55C610.468 439.909 607.104 466.798 608.226 483.618C609.347 500.438 618.318 522.865 636.259 538.564C654.201 554.263 692.327 565.476 712.511 571.083C732.695 576.69 769.7 580.054 791.005 577.811C812.311 575.569 826.889 565.479 842.588 550.901C860.529 534.241 877.349 486.982 881.835 470.162C886.32 453.342 889.684 439.888 881.835 427.55C873.985 415.213 858.287 412.975 842.588 405.125C833.617 400.64 791.005 385.838 758.486 379.334C712.511 370.14 687.841 369.24 667.657 371.483C647.473 373.726 634.899 386.003 627.289 396.153Z" fill="#1A2B3F"/>
<path d="M416.176 286.675L190.785 422.358C206.484 438.057 253.207 458.615 259.187 457.12L456.545 304.616C456.545 304.616 445.205 297.887 437.482 294.524C430.244 291.372 416.176 286.675 416.176 286.675Z" fill="#1E3249" fill-opacity="0.5"/>
<path d="M792.949 388.718L616.897 512.066C623.626 531.129 646.053 547.949 659.509 552.435L843.41 405.538C843.41 405.538 830.949 401.052 823.226 397.689C815.988 394.537 792.949 388.718 792.949 388.718Z" fill="#1E3249" fill-opacity="0.5"/>
<path d="M853.502 410.024L685.3 562.527C694.741 566.712 703.242 568.134 711.091 570.376L862.473 413.389C856.866 411.146 853.502 410.024 853.502 410.024Z" fill="#1E3249" fill-opacity="0.5"/>
<path d="M-91.7951 524.403C-102.56 527.095 -129.547 533.374 -140.013 534.495C-153.469 536.084 -199.445 537.859 -222.993 534.495C-246.541 531.131 -302.609 481.791 -288.031 488.52C-273.454 495.249 -238.692 508.704 -208.415 480.67C-178.139 452.636 -154.867 397.312 -148.984 351.715C-144.499 316.953 -147.863 255.279 -153.469 229.488C-159.076 203.697 -187.11 166.692 -202.809 159.964C-215.368 154.582 -213.648 101.655 -215.144 80.3491C-194.959 74.7423 -154.366 64.4259 -153.469 68.0142C-152.348 72.4996 -146.741 101.655 -140.013 115.111C-133.285 128.567 -118.708 130.81 -105.251 134.174C-91.7951 137.538 -57.0333 162.208 -44.6985 174.542C-32.3636 186.877 -11.058 241.823 -5.45126 266.493C0.155487 291.163 -5.45126 357.322 -11.058 399.934C-15.5952 434.416 -32.3636 477.306 -37.9703 485.156C-43.5771 493.005 -78.3389 521.039 -91.7951 524.403Z" fill="#252934"/>
</g>
</svg>
