<svg width="379" height="145" viewBox="0 0 379 145" fill="none" xmlns="http://www.w3.org/2000/svg">
<path d="M137.422 71.6309C139.283 61.8111 143.005 41.5403 143.005 39.0152C143.005 35.8589 144.6 7.45174 146.993 3.24327C149.386 -0.965199 157.362 41.1195 158.159 45.3279C158.957 49.5364 160.367 90.4097 166.135 78.9957C177.301 56.9012 190.86 37.2617 200.431 20.0771M13.1432 2.00001C31.6302 4.47181 58.9624 2 58.9624 2C46.8886 17.9136 42.7088 22.8458 32.4167 39.9722C26.7657 49.3757 15.6286 66.1801 9 74.9182C9 74.9182 42.7224 76.1541 66.1391 74.9182M225.931 14.2503C227.16 14.0464 228.526 13.8281 229.994 13.6029M229.994 13.6029C243.09 11.5939 264.324 9.03371 269 11.2163M229.994 13.6029C227.644 22.471 224.336 35.4146 221.449 47.6252M256.811 72.9091C244.892 73.2463 221.449 81 215.367 81C214.631 78.2514 217.681 63.5626 221.449 47.6252M221.449 47.6252L250.31 42.5684M104.064 4.80627C104.66 23.5708 103.733 26.0684 103.138 44.833C102.811 55.1359 102.811 68.8387 103.138 79.1416M104.064 4.80627H99.4314M104.064 4.80627H109.624M103.138 79.1416H98.5048M103.138 79.1416H107.771" stroke="white" stroke-width="4" stroke-linecap="round" stroke-linejoin="round"/>
<path d="M3 103C14.1477 103.75 25.2676 103.779 36.4501 103.796C76.0184 103.856 115.588 103.796 155.156 103.796C209.766 103.796 264.378 103.685 318.988 103.796C328.837 103.816 338.637 103.901 348.44 104.769C351.622 105.05 359.197 104.829 362.115 106.582C362.56 106.849 353.909 107.926 353.7 107.952C339.547 109.734 325.559 112.305 311.414 114.143C273.975 119.006 235.707 121.503 199.177 130.327C198.128 130.58 186.341 132.461 185.818 134.218C185.184 136.349 203.935 136.376 204.647 136.384C238.055 136.794 271.482 136.25 304.892 136.429C329.024 136.558 352.106 140.326 376 142" stroke="#FF0000" stroke-width="5" stroke-linecap="round" stroke-linejoin="round"/>
</svg>
